HIERARCHY
ROOT root
{
	OFFSET 0.000000 0.054209 0.736571
	CHANNELS 6 Xposition Yposition Zposition Xrotation Yrotation Zrotation
	JOINT spine04
	{
		OFFSET 0.000000 -0.030951 0.078753
		CHANNELS 6 Xposition Yposition Zposition Xrotation Yrotation Zrotation
		JOINT spine02
		{
			OFFSET 0.000000 -0.000238 0.104623
			CHANNELS 6 Xposition Yposition Zposition Xrotation Yrotation Zrotation
			JOINT spine01
			{
				OFFSET 0.000000 0.017421 0.109292
				CHANNELS 3 Xrotation Yrotation Zrotation
				JOINT neck01
				{
					OFFSET 0.000000 -0.049753 0.167208
					CHANNELS 6 Xposition Yposition Zposition Xrotation Yrotation Zrotation
					JOINT neck02
					{
						OFFSET 0.000000 0.005512 0.021217
						CHANNELS 3 Xrotation Yrotation Zrotation
						JOINT jaw
						{
							OFFSET 0.000000 -0.043573 0.063270
							CHANNELS 6 Xposition Yposition Zposition Xrotation Yrotation Zrotation
							End Site
							{
								OFFSET 0.000000 -0.008973 0.006557
							}
						}
						JOINT eye.L
						{
							OFFSET 0.023674 -0.098122 0.090003
							CHANNELS 3 Xrotation Yrotation Zrotation
							End Site
							{
								OFFSET 0.001819 -0.030370 -0.004421
							}
						}
						JOINT orbicularis03.L
						{
							OFFSET 0.023674 -0.098122 0.090003
							CHANNELS 3 Xrotation Yrotation Zrotation
							End Site
							{
								OFFSET 0.001761 -0.029014 0.005250
							}
						}
						JOINT eye.R
						{
							OFFSET -0.023674 -0.098121 0.090003
							CHANNELS 3 Xrotation Yrotation Zrotation
							End Site
							{
								OFFSET -0.001819 -0.030370 -0.004421
							}
						}
						JOINT orbicularis03.R
						{
							OFFSET -0.023674 -0.098121 0.090003
							CHANNELS 3 Xrotation Yrotation Zrotation
							End Site
							{
								OFFSET -0.001761 -0.029014 0.005250
							}
						}
						End Site
						{
							OFFSET 0.000000 0.005512 0.021217
						}
					}
				}
				JOINT clavicle.R
				{
					OFFSET -0.018367 -0.058464 0.107155
					CHANNELS 6 Xposition Yposition Zposition Xrotation Yrotation Zrotation
					JOINT upperarm01.R
					{
						OFFSET -0.132020 0.003642 -0.024313
						CHANNELS 6 Xposition Yposition Zposition Xrotation Yrotation Zrotation
						JOINT lowerarm01.R
						{
							OFFSET -0.133637 0.001770 -0.153088
							CHANNELS 6 Xposition Yposition Zposition Xrotation Yrotation Zrotation
							JOINT wrist.R
							{
								OFFSET -0.108575 -0.154815 -0.103768
								CHANNELS 6 Xposition Yposition Zposition Xrotation Yrotation Zrotation
								JOINT finger2-1.R
								{
									OFFSET -0.024321 -0.084906 -0.032804
									CHANNELS 3 Xrotation Yrotation Zrotation
									JOINT finger2-2.R
									{
										OFFSET -0.002927 -0.018838 -0.012652
										CHANNELS 3 Xrotation Yrotation Zrotation
										JOINT finger2-3.R
										{
											OFFSET 0.000460 -0.015088 -0.013862
											CHANNELS 3 Xrotation Yrotation Zrotation
											End Site
											{
												OFFSET 0.003042 -0.016083 -0.016987
											}
										}
									}
								}
								JOINT finger3-1.R
								{
									OFFSET -0.038828 -0.069770 -0.043127
									CHANNELS 3 Xrotation Yrotation Zrotation
									JOINT finger3-2.R
									{
										OFFSET -0.006387 -0.018854 -0.022184
										CHANNELS 3 Xrotation Yrotation Zrotation
										JOINT finger3-3.R
										{
											OFFSET -0.002379 -0.015757 -0.018305
											CHANNELS 3 Xrotation Yrotation Zrotation
											End Site
											{
												OFFSET 0.000156 -0.013802 -0.019326
											}
										}
									}
								}
								JOINT finger4-1.R
								{
									OFFSET -0.045586 -0.054771 -0.050312
									CHANNELS 3 Xrotation Yrotation Zrotation
									JOINT finger4-2.R
									{
										OFFSET -0.008217 -0.013209 -0.021152
										CHANNELS 3 Xrotation Yrotation Zrotation
										JOINT finger4-3.R
										{
											OFFSET -0.003839 -0.011895 -0.018031
											CHANNELS 3 Xrotation Yrotation Zrotation
											End Site
											{
												OFFSET -0.002024 -0.010563 -0.020894
											}
										}
									}
								}
								JOINT finger5-1.R
								{
									OFFSET -0.046820 -0.037780 -0.058682
									CHANNELS 3 Xrotation Yrotation Zrotation
									JOINT finger5-2.R
									{
										OFFSET -0.005233 -0.007322 -0.016539
										CHANNELS 3 Xrotation Yrotation Zrotation
										JOINT finger5-3.R
										{
											OFFSET -0.001524 -0.005483 -0.012548
											CHANNELS 3 Xrotation Yrotation Zrotation
											End Site
											{
												OFFSET -0.002248 -0.006725 -0.016024
											}
										}
									}
								}
								JOINT finger1-1.R
								{
									OFFSET -0.000927 -0.039280 -0.005363
									CHANNELS 3 Xrotation Yrotation Zrotation
									JOINT finger1-2.R
									{
										OFFSET 0.018386 -0.018805 -0.006895
										CHANNELS 3 Xrotation Yrotation Zrotation
										JOINT finger1-3.R
										{
											OFFSET 0.010991 -0.028095 -0.011249
											CHANNELS 3 Xrotation Yrotation Zrotation
											End Site
											{
												OFFSET 0.004840 -0.019091 -0.014527
											}
										}
									}
								}
							}
						}
					}
				}
				JOINT clavicle.L
				{
					OFFSET 0.018367 -0.058465 0.107155
					CHANNELS 6 Xposition Yposition Zposition Xrotation Yrotation Zrotation
					JOINT upperarm01.L
					{
						OFFSET 0.132020 0.003642 -0.024313
						CHANNELS 6 Xposition Yposition Zposition Xrotation Yrotation Zrotation
						JOINT lowerarm01.L
						{
							OFFSET 0.133638 0.001770 -0.153088
							CHANNELS 6 Xposition Yposition Zposition Xrotation Yrotation Zrotation
							JOINT wrist.L
							{
								OFFSET 0.108575 -0.154815 -0.103768
								CHANNELS 6 Xposition Yposition Zposition Xrotation Yrotation Zrotation
								JOINT finger2-1.L
								{
									OFFSET 0.024321 -0.084906 -0.032804
									CHANNELS 3 Xrotation Yrotation Zrotation
									JOINT finger2-2.L
									{
										OFFSET 0.002927 -0.018838 -0.012653
										CHANNELS 3 Xrotation Yrotation Zrotation
										JOINT finger2-3.L
										{
											OFFSET -0.000460 -0.015088 -0.013862
											CHANNELS 3 Xrotation Yrotation Zrotation
											End Site
											{
												OFFSET -0.003042 -0.016083 -0.016987
											}
										}
									}
								}
								JOINT finger3-1.L
								{
									OFFSET 0.038828 -0.069770 -0.043127
									CHANNELS 3 Xrotation Yrotation Zrotation
									JOINT finger3-2.L
									{
										OFFSET 0.006387 -0.018854 -0.022184
										CHANNELS 3 Xrotation Yrotation Zrotation
										JOINT finger3-3.L
										{
											OFFSET 0.002379 -0.015757 -0.018305
											CHANNELS 3 Xrotation Yrotation Zrotation
											End Site
											{
												OFFSET -0.000156 -0.013802 -0.019326
											}
										}
									}
								}
								JOINT finger4-1.L
								{
									OFFSET 0.045586 -0.054771 -0.050312
									CHANNELS 3 Xrotation Yrotation Zrotation
									JOINT finger4-2.L
									{
										OFFSET 0.008217 -0.013209 -0.021152
										CHANNELS 3 Xrotation Yrotation Zrotation
										JOINT finger4-3.L
										{
											OFFSET 0.003838 -0.011894 -0.018031
											CHANNELS 3 Xrotation Yrotation Zrotation
											End Site
											{
												OFFSET 0.002024 -0.010563 -0.020894
											}
										}
									}
								}
								JOINT finger5-1.L
								{
									OFFSET 0.046820 -0.037780 -0.058682
									CHANNELS 3 Xrotation Yrotation Zrotation
									JOINT finger5-2.L
									{
										OFFSET 0.005233 -0.007322 -0.016539
										CHANNELS 3 Xrotation Yrotation Zrotation
										JOINT finger5-3.L
										{
											OFFSET 0.001524 -0.005484 -0.012548
											CHANNELS 3 Xrotation Yrotation Zrotation
											End Site
											{
												OFFSET 0.002248 -0.006725 -0.016024
											}
										}
									}
								}
								JOINT finger1-1.L
								{
									OFFSET 0.000927 -0.039280 -0.005363
									CHANNELS 3 Xrotation Yrotation Zrotation
									JOINT finger1-2.L
									{
										OFFSET -0.018386 -0.018805 -0.006895
										CHANNELS 3 Xrotation Yrotation Zrotation
										JOINT finger1-3.L
										{
											OFFSET -0.010991 -0.028095 -0.011249
											CHANNELS 3 Xrotation Yrotation Zrotation
											End Site
											{
												OFFSET -0.004840 -0.019091 -0.014527
											}
										}
									}
								}
							}
						}
					}
				}
			}
		}
	}
	JOINT upperleg01.R
	{
		OFFSET -0.087495 -0.048056 0.004242
		CHANNELS 6 Xposition Yposition Zposition Xrotation Yrotation Zrotation
		JOINT lowerleg01.R
		{
			OFFSET -0.034522 -0.027831 -0.333803
			CHANNELS 6 Xposition Yposition Zposition Xrotation Yrotation Zrotation
			JOINT foot.R
			{
				OFFSET -0.037458 0.009412 -0.349633
				CHANNELS 3 Xrotation Yrotation Zrotation
				JOINT toe1-1.R
				{
					OFFSET -0.003290 -0.101211 -0.050981
					CHANNELS 6 Xposition Yposition Zposition Xrotation Yrotation Zrotation
					End Site
					{
						OFFSET 0.000524 -0.066142 0.003009
					}
				}
			}
		}
	}
	JOINT upperleg01.L
	{
		OFFSET 0.087495 -0.048056 0.004242
		CHANNELS 6 Xposition Yposition Zposition Xrotation Yrotation Zrotation
		JOINT lowerleg01.L
		{
			OFFSET 0.034522 -0.027831 -0.333803
			CHANNELS 6 Xposition Yposition Zposition Xrotation Yrotation Zrotation
			JOINT foot.L
			{
				OFFSET 0.037458 0.009412 -0.349633
				CHANNELS 3 Xrotation Yrotation Zrotation
				JOINT toe1-1.L
				{
					OFFSET 0.003290 -0.101211 -0.050981
					CHANNELS 6 Xposition Yposition Zposition Xrotation Yrotation Zrotation
					End Site
					{
						OFFSET -0.000524 -0.066142 0.003009
					}
				}
			}
		}
	}
}
MOTION
Frames: 5
Frame Time:	0.016667
0.4358 -1.0506 0.6166 -44.6302 103.1414 -87.3276 0.0013 -0.0367 0.0762 11.6137 -3.2904 -3.8958 0.0012 -0.0051 0.1066 26.3668 9.4673 -2.8955 0 0 0 0 -0.043 0.1615 4.8025 -0.4248 11.6175 21.9103 10.2088 5.9888 0 -0.0436 0.0633 0 0 0.0001 0.0296 -0.0053 -7.0294 0 0 0.0001 0.0311 -0.0052 -6.4749 0 0 0.0001 -0.0184 -0.058 0.1069 -0.4919 -4.5672 1.246 -0.1356 -0.0037 -0.0169 -21.5627 28.2928 35.7599 -0.1336 0.0018 -0.1531 -12.0594 -0.6783 44.9352 -0.1086 -0.1548 -0.1038 9.5278 4.0301 40.7245 47.5079 -24.3368 38.0302 49.6925 -17.4908 42.7889 56.402 -16.2562 47.8947 -1.579 -4.7968 2.0097 16.7989 -20.2615 12.335 9.8854 -15.0246 6.1383 25.6725 -35.9078 33.4336 48.3939 -42.2362 43.1526 45.5206 -42.9933 43.3883 -14.7653 -6.1756 3.0528 7.38 -14.275 -0.982 7.633 -16.4246 0.3957 -4.5011 -32.1306 -36.3587 16.0465 15.5162 -40.5498 10.5595 22.7 -51.9633 0.0184 -0.058 0.1151 -0.6941 3.3127 -3.1705 0.1356 -0.0037 -0.0169 31.2668 17.4173 -18.6354 0.1336 0.0018 -0.1531 -41.2536 28.9652 -73.6491 0.1086 -0.1548 -0.1038 30.9544 -45.9687 8.1247 34.9441 23.2582 -23.8714 40.348 17.458 -34.4311 44.6547 17.2404 -37.4094 -7.3157 -3.7996 3.7743 9.8962 13.6147 -4.8927 4.4145 8.5002 -0.2464 -12.2432 -3.0768 -1.1675 8.8002 13.7906 -1.7693 3.2735 10.6487 -0.3218 -16.4667 3.6094 -2.5007 6.0016 11.2429 2.1537 6.4788 14.0752 0.5382 -9.0295 33.6512 21.3063 20.0309 -14.3956 39.8643 14.0503 -20.2543 51.6687 -0.0875 -0.0481 0.0042 -38.9979 -1.694 10.4309 -0.0345 -0.0278 -0.3338 62.8279 -3.6159 -5.313 32.4137 6.4855 -1.9482 -0.0033 -0.1012 -0.051 0 0 0 0.0875 -0.0481 0.0042 -41.086 11.9898 15.3414 0.0345 -0.0278 -0.3338 74.0855 -2.4847 10.8003 43.5282 28.9896 -10.493 0.0033 -0.1012 -0.051 0 0 0 
0.4359 -1.051 0.6158 -44.0208 103.3248 -87.3705 0.0013 -0.0367 0.0763 11.8415 -3.2399 -3.9275 0.0012 -0.0052 0.1068 26.822 9.3945 -2.9327 0 0 0 0 -0.043 0.1615 4.5809 -0.3204 11.9872 22.2468 9.8519 6.2545 0 -0.0436 0.0633 0 -0.0001 0.0001 -0.2816 0.0106 -6.7242 0 0 0.0001 -0.2867 0.0097 -6.2054 0 0 0 -0.0184 -0.058 0.1068 -0.4475 -4.5541 1.0056 -0.1356 -0.0037 -0.0169 -21.4846 28.9938 34.9137 -0.1336 0.0018 -0.1531 -12.7551 -0.9813 45.0107 -0.1086 -0.1548 -0.1038 8.1989 4.0499 40.5692 47.4564 -24.3405 37.9763 49.6478 -17.496 42.7471 56.3584 -16.2654 47.8539 -1.6108 -4.7596 1.9801 16.7651 -20.2343 12.2979 9.8631 -15.0015 6.1135 25.6494 -35.898 33.4129 48.3702 -42.2309 43.1282 45.4979 -42.9881 43.3653 -14.8043 -6.1216 3.0363 7.3521 -14.2185 -1.01 7.6071 -16.3757 0.3698 -4.5011 -32.1306 -36.3587 16.0465 15.5163 -40.5498 10.5595 22.6999 -51.9632 0.0184 -0.058 0.1151 -0.7175 3.3161 -3.2765 0.1356 -0.0037 -0.0169 30.3369 17.2123 -18.2177 0.1336 0.0018 -0.1531 -41.4815 28.3981 -72.9934 0.1086 -0.1548 -0.1038 32.0583 -45.7666 9.1888 35.4129 23.3267 -24.3558 40.7673 17.4677 -34.8236 45.0692 17.2283 -37.798 -7.3422 -3.8433 3.8024 9.8651 13.581 -4.8578 4.3957 8.4755 -0.2249 -12.2729 -3.1192 -1.1527 8.7751 13.7513 -1.7419 3.2559 10.6182 -0.3034 -16.477 3.6113 -2.5021 5.9959 11.2307 2.1593 6.481 14.0797 0.536 -9.0295 33.6512 21.3063 20.0309 -14.3956 39.8643 14.0503 -20.2544 51.6687 -0.0875 -0.0481 0.0042 -38.6547 -1.6864 10.536 -0.0345 -0.0278 -0.3338 62.6703 -3.5608 -5.3287 32.7604 6.6611 -2.1053 -0.0033 -0.1012 -0.051 0 0 0 0.0875 -0.0481 0.0042 -41.6387 11.9679 15.1962 0.0345 -0.0278 -0.3338 75.4146 -2.2608 10.8979 43.8535 29.6995 -10.4152 0.0033 -0.1012 -0.051 0 0 0 
0.4359 -1.0512 0.6152 -43.4992 103.4867 -87.4426 0.0014 -0.0367 0.0763 12.0323 -3.2021 -3.957 0.0012 -0.0053 0.1069 27.1924 9.3351 -2.9649 0 0 0 0 -0.0429 0.1615 4.4001 -0.2378 12.2773 22.5387 9.5837 6.4358 0 -0.0436 0.0633 0 0 0 -0.4656 0.0224 -6.6371 0 0 0 -0.4746 0.0209 -6.1379 0 0 0 -0.0184 -0.058 0.1068 -0.41 -4.5434 0.8025 -0.1356 -0.0037 -0.0169 -21.3949 29.5669 34.2008 -0.1336 0.0018 -0.1531 -13.3535 -1.208 45.0948 -0.1086 -0.1548 -0.1038 7.0471 4.129 40.5596 47.3944 -24.3447 37.9116 49.5942 -17.5023 42.6968 56.306 -16.2764 47.8048 -1.6715 -4.6851 1.9211 16.6971 -20.1795 12.2233 9.8069 -14.9432 6.0512 25.6408 -35.8943 33.4053 48.3615 -42.229 43.1193 45.4896 -42.9863 43.3568 -14.8235 -6.0947 3.028 7.3383 -14.1906 -1.0238 7.5942 -16.3514 0.3569 -4.5011 -32.1306 -36.3587 16.0464 15.5162 -40.5498 10.5595 22.6999 -51.9633 0.0184 -0.058 0.115 -0.7373 3.3188 -3.3667 0.1356 -0.0037 -0.0169 29.515 16.9839 -17.8809 0.1336 0.0018 -0.1531 -41.6584 27.9341 -72.4276 0.1086 -0.1548 -0.1038 32.9307 -45.4912 10.0021 35.6177 23.3555 -24.5676 40.9504 17.471 -34.9951 45.2502 17.2222 -37.9677 -7.3576 -3.8684 3.8185 9.8471 13.5615 -4.8376 4.3838 8.4599 -0.2115 -12.2872 -3.1394 -1.1455 8.7632 13.7325 -1.7287 3.2474 10.6036 -0.2945 -16.4793 3.6169 -2.504 5.9952 11.2292 2.16 6.4842 14.086 0.5328 -9.0295 33.6511 21.3063 20.0309 -14.3956 39.8642 14.0503 -20.2544 51.6687 -0.0875 -0.0481 0.0042 -38.3771 -1.6798 10.6413 -0.0345 -0.0278 -0.3338 62.5488 -3.542 -5.3271 33.0626 6.8222 -2.2502 -0.0033 -0.1012 -0.051 -0.0001 0 0 0.0875 -0.0481 0.0042 -42.0606 11.9882 15.0472 0.0345 -0.0278 -0.3338 76.4596 -2.0547 10.9497 44.0415 30.2822 -10.3142 0.0033 -0.1012 -0.051 0 0 0 
0.4357 -1.0513 0.6149 -43.3198 103.7957 -87.3536 0.0014 -0.0367 0.0764 12.3338 -3.1511 -4.0143 0.0012 -0.0054 0.1071 27.6406 9.3447 -3.0255 0 0 0 0 -0.0429 0.1615 4.1685 -0.1537 12.7074 22.9658 9.3432 6.7372 0 -0.0436 0.0633 0 -0.0001 0.0001 -0.6239 0.0334 -6.7024 0 -0.0001 0.0001 -0.6365 0.0315 -6.2159 0 0 0 -0.0184 -0.058 0.1068 -0.3773 -4.5309 0.6158 -0.1356 -0.0037 -0.0169 -21.3431 30.091 33.4716 -0.1336 0.0018 -0.1531 -14.0521 -1.4285 45.2258 -0.1086 -0.1548 -0.1038 5.4438 4.3343 40.7987 47.2473 -24.3546 37.7578 49.4668 -17.5171 42.5774 56.1812 -16.3023 47.6882 -1.9507 -4.3369 1.6467 16.3811 -19.9225 11.876 9.5369 -14.6609 5.7512 25.0437 -35.6247 32.8577 47.7416 -42.0875 42.4801 44.8577 -42.84 42.7158 -14.8654 -6.0351 3.0097 7.308 -14.129 -1.0541 7.5657 -16.2975 0.3284 -4.5011 -32.1306 -36.3587 16.0464 15.5162 -40.5498 10.5595 22.6999 -51.9632 0.0184 -0.058 0.115 -0.754 3.3216 -3.4429 0.1356 -0.0037 -0.0169 28.7323 16.7601 -17.3314 0.1336 0.0018 -0.1531 -41.8947 27.299 -71.7655 0.1086 -0.1548 -0.1038 34.0145 -45.5174 11.1207 36.0494 23.414 -25.0141 41.3357 17.4763 -35.3558 45.6312 17.2077 -38.325 -7.3912 -3.9229 3.8535 9.8082 13.5191 -4.7939 4.3579 8.4259 -0.1821 -12.3175 -3.1826 -1.1304 8.7377 13.6924 -1.7008 3.2294 10.5724 -0.2756 -16.4873 3.6229 -2.5065 5.9913 11.2207 2.1639 6.4884 14.0942 0.5287 -9.0296 33.6512 21.3063 20.0309 -14.3956 39.8643 14.0503 -20.2544 51.6687 -0.0875 -0.0481 0.0042 -37.9348 -1.9674 10.8192 -0.0345 -0.0278 -0.3338 62.3484 -3.4575 -5.3548 33.4797 7.1 -2.3395 -0.0033 -0.1012 -0.051 0 0 0 0.0875 -0.0481 0.0042 -42.3774 11.7971 14.6764 0.0345 -0.0278 -0.3338 77.7828 -1.5173 10.8059 43.8203 31.1486 -10.0433 0.0033 -0.1012 -0.051 0 0 0 
0.4369 -1.0542 0.6149 -42.432 104.0562 -88.3316 0.0014 -0.0368 0.0767 13.0257 -3.0676 -4.1241 0.0012 -0.0054 0.1071 27.8157 9.4166 -3.0945 0 0 0 0 -0.0429 0.1614 3.997 -0.1746 12.8595 23.0621 9.6498 7.1717 0 -0.0436 0.0633 0 0 0 -0.7288 0.0414 -6.7881 0 0 0 -0.7437 0.0392 -6.3096 0 0 0.0001 -0.0184 -0.0579 0.1068 -0.3704 -4.5161 0.5744 -0.1356 -0.0037 -0.0169 -21.684 30.4158 33.1436 -0.1336 0.0018 -0.1531 -14.4657 -1.4087 45.1154 -0.1086 -0.1548 -0.1038 4.1804 4.5429 41.285 47.1696 -24.3597 37.6766 49.3995 -17.5248 42.5144 56.1153 -16.3158 47.6266 -2.2499 -3.9581 1.3514 16.041 -19.6419 11.5019 9.2421 -14.3489 5.4233 23.2462 -34.7686 31.2115 45.8635 -41.6219 40.5426 42.9403 -42.3586 40.7699 -14.8873 -6.0036 3 7.2921 -14.0967 -1.0701 7.5506 -16.269 0.3134 -4.5011 -32.1306 -36.3587 16.0464 15.5162 -40.5498 10.5595 22.7 -51.9633 0.0184 -0.0579 0.1149 -0.7778 3.3258 -3.552 0.1356 -0.0037 -0.0169 27.951 16.7998 -16.9475 0.1336 0.0018 -0.1531 -41.8781 26.5317 -71.1061 0.1086 -0.1548 -0.1038 34.545 -45.9765 12.085 36.2688 23.4426 -25.2412 41.5313 17.4782 -35.5389 45.8248 17.1994 -38.5064 -7.4066 -3.9479 3.8695 9.7904 13.4997 -4.7739 4.3465 8.4109 -0.1691 -12.3328 -3.2044 -1.1227 8.7248 13.6721 -1.6867 3.2204 10.5567 -0.266 -16.4912 3.6261 -2.5078 5.9894 11.2166 2.1658 6.4906 14.0986 0.5265 -9.0295 33.6512 21.3063 20.0309 -14.3956 39.8643 14.0503 -20.2543 51.6687 -0.0875 -0.0481 0.0042 -37.4059 -2.0611 11.2038 -0.0345 -0.0278 -0.3338 61.5688 -3.1566 -5.443 34.2587 7.324 -2.0629 -0.0033 -0.1012 -0.051 0 0 0 0.0875 -0.0481 0.0042 -42.4283 11.7781 14.4148 0.0345 -0.0278 -0.3338 78.2202 -0.7345 10.2967 43.5664 32.0757 -9.2157 0.0033 -0.1012 -0.051 0 0 0 
